<?xml version="1.0" standalone="no"?>
<!DOCTYPE svg PUBLIC "-//W3C//DTD SVG 20010904//EN"
 "http://www.w3.org/TR/2001/REC-SVG-20010904/DTD/svg10.dtd">
<svg version="1.0" xmlns="http://www.w3.org/2000/svg"
 width="36.000000pt" height="36.000000pt" viewBox="0 0 36.000000 36.000000"
 preserveAspectRatio="xMidYMid meet">

<g transform="translate(0.000000,36.000000) scale(0.100000,-0.100000)"
fill="#000000" stroke="none">
<path d="M145 341 c3 -5 1 -12 -5 -16 -5 -3 -10 -1 -10 4 0 6 -7 11 -16 11
-18 0 -84 -62 -84 -78 0 -6 17 -13 38 -15 l37 -4 -42 -1 c-53 -2 -60 -29 -10
-35 l32 -4 -35 -3 -35 -2 30 -8 30 -8 -27 -1 c-20 -1 -28 -6 -28 -20 0 -24 38
-79 71 -104 34 -25 108 -33 146 -17 35 16 79 76 60 84 -7 2 -5 5 5 5 20 1 32
50 24 97 -5 26 -12 34 -29 35 -19 0 -19 1 -4 7 43 18 -49 82 -118 82 -20 0
-34 -4 -30 -9z m61 -13 c11 2 26 -4 33 -12 10 -12 5 -14 -38 -13 -34 2 -47 5
-40 13 5 6 5 15 1 19 -4 5 0 4 8 -1 8 -4 24 -7 36 -6z m4 -32 c0 -3 -4 -8 -10
-11 -5 -3 -10 -1 -10 4 0 6 5 11 10 11 6 0 10 -2 10 -4z m82 -47 c20 -1 20 -2
3 -6 -11 -3 -25 -12 -31 -21 -6 -8 -16 -12 -22 -8 -7 4 -12 1 -12 -6 -1 -9 -5
-7 -14 5 -11 15 -15 15 -19 3 -7 -19 -40 -10 -64 17 -15 17 -16 20 -2 14 13
-4 16 -1 12 14 -6 20 11 27 22 9 10 -17 52 -11 60 8 6 15 8 15 25 -5 10 -13
29 -24 42 -24z m-204 14 c-10 -2 -26 -2 -35 0 -10 3 -2 5 17 5 19 0 27 -2 18
-5z m95 -78 c36 -17 47 -37 27 -50 -6 -3 -14 5 -20 19 -5 14 -16 26 -24 26 -7
0 -20 8 -27 17 -8 9 -9 14 -4 11 6 -3 27 -13 48 -23z m130 18 c-7 -2 -21 -2
-30 0 -10 3 -4 5 12 5 17 0 24 -2 18 -5z m-67 -39 c-4 -9 -9 -15 -11 -12 -3 3
-3 13 1 22 4 9 9 15 11 12 3 -3 3 -13 -1 -22z m67 19 c-7 -2 -19 -2 -25 0 -7
3 -2 5 12 5 14 0 19 -2 13 -5z m-153 -123 c0 -5 -7 -7 -15 -4 -8 4 -12 10 -9
15 6 11 24 2 24 -11z"/>
</g>
</svg>
