<?xml version="1.0" standalone="no"?>
<!DOCTYPE svg PUBLIC "-//W3C//DTD SVG 20010904//EN"
 "http://www.w3.org/TR/2001/REC-SVG-20010904/DTD/svg10.dtd">
<svg version="1.0" xmlns="http://www.w3.org/2000/svg"
 width="16.000000pt" height="16.000000pt" viewBox="0 0 16.000000 16.000000"
 preserveAspectRatio="xMidYMid meet">

<g transform="translate(0.000000,16.000000) scale(0.100000,-0.100000)"
fill="#000000" stroke="none">
<path d="M50 147 c-33 -16 -47 -58 -32 -92 13 -28 55 -49 82 -40 20 6 40 46
40 79 0 26 -25 64 -36 54 -4 -5 1 -17 11 -28 16 -17 16 -20 2 -26 -22 -8 -50
-1 -55 14 -2 8 2 12 9 10 15 -3 19 3 19 27 0 18 -7 19 -40 2z"/>
</g>
</svg>
